<svg width="75px" height="75px" viewBox="0 0 50 50" version="1.1" xmlns="http://www.w3.org/2000/svg" xmlns:xlink="http://www.w3.org/1999/xlink">
    <title>Zalo</title>
    <desc>Created using Figma</desc>
    <g id="Canvas" transform="translate(-272 25)">
        <g id="Logo/Zalo">
            <g id="Page 1">
                <g id="Group 3">
                    <mask id="mask0_outline" mask-type="alpha">
                        <g id="Clip 2">
                            <use xlink:href="#path0_fill" transform="translate(272.166 -24.8339)" fill="#FFFFFF" />
                        </g>
                    </mask>
                    <g id="Fill 1" mask="url(#mask0_outline)">
                        <use xlink:href="#path1_fill" transform="translate(272.166 -24.8339)" fill="#008DE8" />
                    </g>
                </g>
                <g id="Fill 4">
                    <use xlink:href="#path2_fill" transform="translate(278.153 -24.8338)" fill="#FFFFFF" />
                </g>
                <g id="Fill 6">
                    <use xlink:href="#path3_fill" transform="translate(285.565 -9.39063)" fill="#008DE8" />
                </g>
                <g id="Fill 8">
                    <use xlink:href="#path4_fill" transform="translate(294.714 -6.8448)" fill="#008DE8" />
                </g>
                <g id="Fill 10">
                    <use xlink:href="#path5_fill" transform="translate(308.002 -6.79915)" fill="#008DE8" />
                </g>
                <g id="Fill 12">
                    <use xlink:href="#path6_fill" transform="translate(304.53 -10.2912)" fill="#008DE8" />
                </g>
                <g id="Group 16" opacity="0.1">
                    <mask id="mask1_outline" mask-type="alpha">
                        <g id="Clip 15">
                            <use xlink:href="#path7_fill" transform="translate(283.593 6.48319)" fill="#FFFFFF" />
                        </g>
                    </mask>
                    <g id="Fill 14" mask="url(#mask1_outline)">
                        <use xlink:href="#path8_fill" transform="translate(283.593 6.48319)" />
                    </g>
                </g>
            </g>
        </g>
    </g>
    <defs>
        <path id="path0_fill" fill-rule="evenodd" d="M 0 24.9169L 0 49.8339L 49.8339 49.8339L 49.8339 24.9169L 49.8339 0L 0 0L 0 24.9169Z" />
        <path id="path1_fill" fill-rule="evenodd" d="M 31.1522 43.7307C 27.2864 43.7307 23.6243 42.9156 20.3515 41.4593C 20.2776 41.4264 20.1944 41.4216 20.1173 41.4463L 11.4522 44.2229C 11.3349 44.2604 11.2189 44.1618 11.2372 44.0399L 12.4332 36.1105C 12.4485 36.0096 12.4159 35.9076 12.3455 35.8339C 8.3907 31.6771 5.98737 26.2012 5.98737 20.1998C 5.98737 11.6183 10.9008 4.11063 18.2399 0L 7.19668 0C 3.22209 0 0 3.22209 0 7.19651L 0 42.6372C 0 46.6118 3.22209 49.8339 7.19668 49.8339L 42.6374 49.8339C 46.6118 49.8339 49.8339 46.6118 49.8339 42.6372L 49.8339 35.9643C 45.2286 40.7332 38.5649 43.7307 31.1522 43.7307" />
        <path id="path2_fill" fill-rule="evenodd" d="M 43.8465 35.9643L 43.8465 7.19651C 43.8465 3.22209 40.6246 0 36.65 0L 12.2525 0C 4.91345 4.11063 0 11.6183 0 20.1998C 0 26.2012 2.40332 31.6771 6.35814 35.8339C 6.42857 35.9076 6.46113 36.0095 6.44601 36.1105L 5.24983 44.0399C 5.23156 44.1618 5.34751 44.2605 5.46478 44.2229L 14.1299 41.4463C 14.207 41.4216 14.2902 41.4264 14.3641 41.4593C 17.6369 42.9156 21.299 43.7307 25.1648 43.7307C 32.5776 43.7307 39.2412 40.7332 43.8465 35.9643" />
        <path id="path3_fill" fill-rule="evenodd" d="M 3.47694 8.84873C 5.02545 8.84873 6.47063 8.83976 7.91565 8.85222C 8.72744 8.85903 9.16631 9.20471 9.2409 9.84408C 9.33558 10.6534 8.86332 11.1906 7.98641 11.2004C 6.33259 11.2192 4.67827 11.2075 3.02428 11.2075C 2.54671 11.2075 2.06814 11.2243 1.59222 11.1969C 0.998702 11.1627 0.418303 11.0454 0.134416 10.4328C -0.149969 9.81933 0.0475391 9.26867 0.440396 8.76917C 2.02113 6.75887 3.60369 4.75023 5.18525 2.74076C 5.2791 2.62149 5.36997 2.49957 5.46116 2.3803C 5.36465 2.20571 5.21116 2.28378 5.09206 2.28312C 3.98359 2.27631 2.87511 2.28412 1.76681 2.27531C 1.51349 2.27315 1.25269 2.25289 1.009 2.18893C 0.494715 2.05422 0.182589 1.64242 0.178436 1.15156C 0.174449 0.659699 0.477107 0.243087 0.990064 0.098569C 1.23242 0.0301305 1.49422 0.00654243 1.74754 0.00554575C 3.57213 -0.00192933 5.39671 -0.00143099 7.22146 0.00454907C 7.54372 0.00571186 7.86847 0.0138514 8.18143 0.121991C 8.87329 0.360861 9.17778 0.998403 8.89655 1.67382C 8.65153 2.26169 8.26133 2.76136 7.87163 3.25737C 6.53375 4.95986 5.19106 6.6582 3.85086 8.3587C 3.74671 8.49076 3.64671 8.62598 3.47694 8.84873" />
        <path id="path4_fill" fill-rule="evenodd" d="M 2.58072 4.65783C 2.59052 5.00982 2.70663 5.48325 3.01112 5.89388C 3.67341 6.78724 5.03255 6.78458 5.69434 5.89205C 6.26793 5.1183 6.26511 3.83474 5.69085 3.06198C 5.38737 2.65367 4.98222 2.43955 4.47657 2.40998C 3.35481 2.34387 2.56926 3.21181 2.58072 4.65783L 2.58072 4.65783ZM 6.198 0.916797C 6.44717 0.60301 6.69451 0.307661 7.11577 0.221615C 7.91976 0.0578276 8.68205 0.580253 8.69268 1.39753C 8.71959 3.44288 8.70962 5.48872 8.6975 7.53424C 8.69418 8.09304 8.34999 8.52128 7.84667 8.69238C 7.31893 8.87178 6.76909 8.74105 6.41677 8.2962C 6.24434 8.07859 6.17042 8.04121 5.92989 8.23623C 4.998 8.99171 3.947 9.1241 2.81096 8.7555C 0.988365 8.16414 0.237867 6.74404 0.0401932 5.00467C -0.172431 3.13623 0.449495 1.53291 2.12192 0.549854C 3.51029 -0.266425 4.92059 -0.19782 6.198 0.916797L 6.198 0.916797Z" />
        <path id="path5_fill" fill-rule="evenodd" d="M 2.57582 4.42189C 2.57316 4.94548 2.69641 5.43385 3.01203 5.85811C 3.65887 6.72821 5.00404 6.73518 5.66417 5.87721C 6.25934 5.10379 6.2615 3.7895 5.67413 3.00777C 5.36799 2.60013 4.96102 2.39016 4.45653 2.36325C 3.35156 2.30462 2.58047 3.1498 2.57582 4.42189L 2.57582 4.42189ZM 0.00254797 4.66907C -0.0755251 2.04133 1.6484 0.0782061 4.10022 0.00262473C 6.70554 -0.0772755 8.617 1.67455 8.69474 4.22854C 8.77364 6.81458 7.1871 8.64913 4.74059 8.89448C 2.08261 9.16076 -0.035658 7.22421 0.00254797 4.66907L 0.00254797 4.66907Z" />
        <path id="path6_fill" fill-rule="evenodd" d="M 2.57799 6.12649C 2.57799 7.71187 2.58596 9.29709 2.57483 10.8823C 2.56835 11.7891 1.76835 12.4021 0.908054 12.1851C 0.391276 12.0547 0.00506349 11.5064 0.00406681 10.8677C 0.000246209 8.15739 0.00240568 5.44692 0.00240568 2.73679C 0.00240568 2.25939 -0.00407273 1.78198 0.00423292 1.3049C 0.0178542 0.51819 0.518685 0.00755936 1.27134 8.42837e-05C 2.04875 -0.00755691 2.57018 0.504901 2.57516 1.31952C 2.58496 2.92184 2.57799 4.52417 2.57799 6.12649" />
        <path id="path7_fill" fill-rule="evenodd" d="M 7.08182e-15 18.5168L 38.4073 18.5168L 38.4073 0L 7.08182e-15 0L 7.08182e-15 18.5168Z" />
        <path id="path8_fill" fill-rule="evenodd" d="M 38.4073 0L 38.4073 4.64734C 33.802 9.41628 27.1384 12.4136 19.7256 12.4136C 15.8598 12.4136 12.1977 11.5985 8.92491 10.1424C 8.85099 10.1093 8.76777 10.1045 8.6907 10.1294L 0.0255814 12.9058C 0.0171096 12.9086 0.00847176 12.9093 0 12.9106L 5.65714 18.5169L 31.2108 18.5169C 35.1854 18.5169 38.4073 15.2947 38.4073 11.3201L 38.4073 0Z" />
    </defs>
</svg>